<?xml version="1.0" standalone="no"?>
<!DOCTYPE svg PUBLIC "-//W3C//DTD SVG 20010904//EN"
 "http://www.w3.org/TR/2001/REC-SVG-20010904/DTD/svg10.dtd">
<svg version="1.0" xmlns="http://www.w3.org/2000/svg"
 width="677.000000pt" height="369.000000pt" viewBox="0 0 677.000000 369.000000"
 preserveAspectRatio="xMidYMid meet">

<g transform="translate(0.000000,369.000000) scale(0.100000,-0.100000)"
fill="#000000" stroke="none">
<path d="M4814 3330 c-246 -130 -342 -188 -399 -245 -200 -199 -210 -525 -22
-732 109 -119 243 -178 402 -176 60 0 110 7 151 20 59 19 579 299 618 332 64
55 11 167 -69 147 -11 -3 -144 -74 -295 -157 -151 -84 -295 -159 -320 -166
-71 -23 -195 -13 -262 20 -139 68 -226 235 -199 381 28 150 87 213 331 347
102 56 191 108 198 117 20 26 15 86 -10 109 -39 35 -61 36 -124 3z"/>
<path d="M5285 3334 c-49 -26 -537 -295 -543 -299 -3 -3 66 -127 78 -139 11
-11 556 287 588 321 12 13 22 37 22 53 0 34 -35 77 -70 85 -17 4 -42 -3 -75
-21z"/>
<path d="M5128 2993 l-277 -155 28 -56 c55 -106 21 -112 331 59 151 83 283
159 293 169 28 26 26 84 -3 115 -44 46 -69 37 -372 -132z"/>
<path d="M5255 2805 c-154 -85 -284 -156 -289 -158 -12 -4 69 -153 81 -150 5
1 135 71 289 157 285 158 304 172 304 227 0 28 -53 79 -82 79 -13 0 -150 -70
-303 -155z"/>
<path d="M1171 2744 c-69 -35 -103 -86 -109 -164 -6 -77 10 -120 62 -168 71
-65 176 -75 260 -23 41 26 45 41 16 58 -16 11 -25 9 -55 -8 -29 -17 -47 -20
-92 -17 -49 4 -61 10 -89 40 -117 129 50 320 189 217 l29 -21 22 21 21 22 -28
24 c-57 50 -147 58 -226 19z"/>
<path d="M3486 2754 c-19 -18 -19 -20 -6 -45 12 -21 40 -25 58 -7 18 18 14 46
-7 58 -25 13 -27 13 -45 -6z"/>
<path d="M2661 2730 c-10 -29 -9 -30 18 -30 19 0 34 8 45 25 22 33 21 35 -18
35 -29 0 -36 -5 -45 -30z"/>
<path d="M1575 2646 c-92 -40 -122 -160 -59 -236 75 -89 219 -69 265 36 58
129 -75 257 -206 200z m126 -75 c60 -61 23 -156 -61 -156 -55 0 -90 37 -90 95
0 30 6 43 31 64 41 35 83 34 120 -3z"/>
<path d="M2003 2653 c-12 -2 -27 -11 -33 -19 -16 -18 -30 -18 -30 1 0 10 -10
15 -30 15 l-30 0 0 -145 0 -145 29 0 29 0 4 101 c3 92 5 103 27 120 30 25 66
24 91 -1 17 -17 20 -33 20 -120 l0 -100 30 0 30 0 0 115 c0 111 -1 116 -27
144 -28 30 -69 42 -110 34z"/>
<path d="M2285 2648 c-31 -16 -45 -39 -45 -71 0 -46 17 -65 79 -88 64 -23 83
-46 55 -66 -24 -18 -60 -16 -94 4 -24 14 -31 14 -44 4 -25 -21 -19 -39 17 -57
64 -34 163 -17 186 32 26 57 -3 102 -84 132 -37 13 -50 23 -50 37 0 23 42 32
73 16 20 -11 42 2 42 26 0 32 -94 54 -135 31z"/>
<path d="M2605 2646 c-65 -28 -106 -109 -90 -173 18 -73 107 -132 177 -119 87
16 146 96 133 178 -16 94 -130 153 -220 114z m126 -75 c60 -61 23 -156 -61
-156 -55 0 -90 37 -90 95 0 30 6 43 31 64 41 35 83 34 120 -3z"/>
<path d="M3030 2653 c-8 -3 -25 -15 -37 -26 l-23 -20 0 21 c0 18 -6 22 -30 22
l-30 0 0 -145 0 -145 29 0 29 0 4 94 c4 109 18 136 75 136 31 0 33 2 33 35 0
36 -11 42 -50 28z"/>
<path d="M3230 2649 c-37 -15 -78 -58 -91 -96 -45 -138 128 -257 246 -169 20
15 20 15 -1 36 -19 19 -22 20 -52 4 -95 -47 -178 71 -103 147 33 32 67 37 110
14 26 -13 30 -13 46 5 21 23 13 38 -31 56 -38 16 -88 17 -124 3z"/>
<path d="M3710 2638 c-58 -31 -83 -76 -77 -146 9 -130 162 -184 261 -92 34 32
40 43 43 91 3 40 -1 63 -15 89 -21 40 -90 80 -137 80 -17 0 -51 -10 -75 -22z
m119 -53 c53 -27 64 -102 21 -145 -43 -43 -118 -32 -145 21 -19 36 -19 53 1
90 24 47 73 60 123 34z"/>
<path d="M3480 2505 l0 -145 35 0 35 0 0 145 0 145 -35 0 -35 0 0 -145z"/>
<path d="M1070 1800 l0 -360 260 0 260 0 0 65 0 65 -175 0 -175 0 0 85 0 85
140 0 140 0 0 65 0 65 -140 0 -140 0 0 75 0 75 175 0 175 0 0 70 0 70 -260 0
-260 0 0 -360z"/>
<path d="M2550 1800 l0 -360 39 0 c36 0 40 3 51 35 6 19 14 35 17 35 3 0 25
-18 49 -40 31 -28 53 -40 76 -41 173 -8 250 77 250 276 0 181 -68 275 -200
275 -48 0 -90 -20 -117 -56 -13 -17 -14 -5 -15 109 l0 127 -75 0 -75 0 0 -360z
m289 56 c26 -28 41 -81 41 -151 0 -70 -15 -123 -41 -151 -38 -40 -96 -28 -124
26 -18 34 -20 175 -5 232 19 67 86 90 129 44z"/>
<path d="M1894 1965 c-16 -9 -39 -30 -50 -48 l-19 -32 -3 43 -3 42 -70 0 -69
0 0 -265 0 -265 74 0 75 0 3 191 c3 187 4 191 27 210 30 25 76 24 101 -1 19
-19 20 -33 20 -210 l0 -190 74 0 74 0 3 186 4 186 28 24 c32 27 74 31 103 10
17 -13 19 -30 22 -210 l3 -196 75 0 74 0 0 216 c0 245 -5 266 -69 302 -75 43
-178 24 -227 -41 l-19 -24 -36 40 c-34 39 -39 41 -100 44 -44 3 -73 -1 -95
-12z"/>
<path d="M3327 1969 c-11 -6 -27 -30 -38 -53 l-19 -41 0 48 0 47 -75 0 -75 0
0 -265 0 -265 80 0 80 0 0 139 c0 77 5 152 11 168 16 42 48 72 86 79 l33 6 0
74 0 74 -32 0 c-18 0 -41 -5 -51 -11z"/>
<path d="M3600 1971 c-43 -14 -84 -38 -107 -63 -23 -24 -47 -77 -39 -86 3 -2
35 -8 71 -11 58 -6 66 -5 71 11 11 35 46 58 88 58 54 -1 76 -20 83 -68 l5 -40
-48 -7 c-171 -21 -233 -47 -270 -109 -24 -40 -24 -124 -1 -159 56 -85 203 -96
281 -21 19 19 37 34 40 34 3 0 6 -17 8 -37 l3 -38 70 -3 70 -3 -3 218 c-3 248
-7 265 -75 304 -34 19 -59 24 -132 26 -49 1 -101 -1 -115 -6z m170 -316 c0
-101 -81 -166 -148 -119 -31 21 -31 83 1 111 27 25 71 41 115 42 30 1 32 -1
32 -34z"/>
<path d="M4160 1959 c-99 -45 -150 -132 -150 -258 0 -171 95 -272 256 -272 78
0 161 34 194 81 25 35 52 109 44 121 -3 5 -36 9 -75 9 -56 0 -69 -3 -69 -16 0
-27 -56 -74 -87 -74 -64 0 -93 52 -93 165 0 100 50 167 113 151 35 -8 67 -44
67 -74 0 -24 1 -24 73 -17 39 4 73 8 74 9 7 6 -20 74 -41 106 -55 83 -203 116
-306 69z"/>
<path d="M4731 1969 c-52 -16 -127 -97 -145 -160 -60 -202 52 -382 238 -381
148 0 244 96 254 253 8 131 -46 236 -143 280 -44 20 -146 24 -204 8z m152
-107 c49 -54 47 -271 -3 -317 -21 -19 -67 -22 -97 -7 -32 17 -47 76 -47 177 0
91 16 146 46 158 30 12 86 6 101 -11z"/>
<path d="M5383 1960 c-18 -10 -40 -34 -50 -52 l-18 -33 -3 48 -3 47 -70 0 -69
0 0 -265 0 -265 74 0 75 0 3 179 c3 164 5 182 24 208 34 45 101 44 122 -2 8
-17 12 -90 12 -205 l0 -180 75 0 75 0 0 213 c0 238 -5 262 -69 304 -45 30
-132 32 -178 3z"/>
<path d="M3686 1121 c-3 -5 13 -11 35 -15 39 -6 59 -2 59 12 0 11 -88 13 -94
3z"/>
<path d="M1070 995 c0 -77 2 -85 19 -85 14 0 21 8 23 26 2 22 9 27 37 29 38 3
61 26 61 60 0 36 -31 55 -88 55 l-52 0 0 -85z m98 28 c3 -20 -1 -23 -27 -23
-27 0 -31 4 -31 26 0 22 4 25 28 22 19 -2 28 -9 30 -25z"/>
<path d="M1266 1058 c-59 -53 -21 -148 59 -148 48 0 95 45 95 90 0 71 -98 108
-154 58z m98 -24 c40 -40 -7 -109 -59 -86 -32 15 -41 47 -21 77 19 29 57 33
80 9z"/>
<path d="M1450 995 c0 -78 2 -85 20 -85 16 0 20 7 20 30 0 19 5 30 14 30 8 0
23 -13 33 -30 11 -20 25 -30 41 -30 l23 0 -21 30 c-20 28 -20 32 -6 52 36 51
6 88 -72 88 l-52 0 0 -85z m98 28 c3 -20 -1 -23 -27 -23 -27 0 -31 4 -31 26 0
22 4 25 28 22 19 -2 28 -9 30 -25z"/>
<path d="M1645 1055 c-46 -45 -23 -126 38 -140 43 -10 102 0 102 17 0 9 4 20
8 24 4 4 7 23 7 41 0 49 -37 83 -90 83 -30 0 -47 -6 -65 -25z m96 -15 c12 -7
19 -21 19 -42 0 -24 -3 -28 -13 -20 -17 15 -39 -1 -31 -21 8 -21 -5 -22 -34
-1 -27 19 -30 68 -4 83 22 13 39 13 63 1z"/>
<path d="M1834 1014 c1 -56 5 -69 25 -85 30 -25 76 -24 101 1 16 16 20 33 20
85 0 49 -3 65 -14 65 -10 0 -15 -18 -18 -61 -5 -74 -28 -97 -62 -63 -11 10
-16 34 -16 70 0 46 -3 54 -19 54 -17 0 -19 -7 -17 -66z"/>
<path d="M2020 995 l0 -85 60 0 c50 0 60 3 60 18 0 13 -8 17 -37 17 -28 0 -38
5 -41 18 -3 14 4 17 37 17 30 0 41 4 41 15 0 11 -11 15 -40 15 -33 0 -40 3
-40 20 0 17 7 20 40 20 29 0 40 4 40 15 0 12 -13 15 -60 15 l-60 0 0 -85z"/>
<path d="M2274 1072 c-35 -24 -14 -76 36 -87 32 -7 40 -32 14 -42 -9 -3 -26
-1 -37 6 -29 18 -50 -5 -23 -25 34 -25 101 -14 111 17 11 34 -5 58 -46 70 -50
15 -53 41 -4 37 39 -2 57 9 35 22 -18 11 -71 13 -86 2z"/>
<path d="M2430 1055 c-31 -33 -32 -87 -3 -116 11 -11 39 -23 61 -26 36 -5 45
-2 72 25 38 39 40 83 5 117 -34 35 -102 35 -135 0z m102 -22 c26 -23 23 -59
-7 -79 -51 -33 -104 21 -71 71 19 29 51 32 78 8z"/>
<path d="M2620 995 c0 -78 2 -85 19 -85 17 0 20 8 23 52 l3 53 40 -52 c22 -29
48 -52 58 -53 15 0 17 11 17 85 0 78 -2 85 -20 85 -17 0 -20 -7 -20 -47 l-1
-48 -40 48 c-23 26 -50 47 -60 47 -17 0 -19 -8 -19 -85z"/>
<path d="M2820 995 c0 -78 2 -85 20 -85 17 0 20 7 20 40 0 39 1 40 35 40 34 0
35 -1 35 -40 0 -33 3 -40 20 -40 18 0 20 7 20 85 0 78 -2 85 -20 85 -16 0 -20
-7 -20 -30 0 -28 -3 -30 -35 -30 -32 0 -35 2 -35 30 0 23 -4 30 -20 30 -18 0
-20 -7 -20 -85z"/>
<path d="M3063 1063 c-4 -10 -19 -47 -34 -83 -24 -57 -26 -65 -11 -69 8 -2 21
4 27 13 15 20 69 21 85 1 14 -17 40 -20 40 -4 0 6 -14 44 -31 85 -23 56 -36
74 -50 74 -11 0 -23 -8 -26 -17z m41 -59 c11 -28 6 -44 -12 -44 -27 0 -32 9
-20 36 13 28 23 31 32 8z"/>
<path d="M3210 995 c0 -78 2 -85 20 -85 16 0 20 7 20 30 0 38 9 38 41 -1 15
-19 32 -30 43 -28 16 4 16 6 -4 32 -21 26 -21 29 -6 46 40 44 5 91 -67 91
l-47 0 0 -85z m88 28 c3 -20 -1 -23 -27 -23 -23 0 -31 5 -31 18 0 25 10 33 35
30 12 -2 21 -12 23 -25z"/>
<path d="M3460 995 c0 -69 3 -85 15 -85 11 0 15 12 15 50 0 28 3 50 8 50 4 -1
24 -23 45 -50 56 -73 67 -68 67 35 0 75 -2 85 -18 85 -14 0 -17 -7 -14 -39 6
-56 -12 -58 -49 -6 -18 25 -40 45 -51 45 -16 0 -18 -9 -18 -85z"/>
<path d="M3694 1045 c-55 -131 -55 -135 -34 -135 12 0 23 7 26 15 4 9 19 15
39 15 18 0 38 -7 45 -15 13 -16 40 -21 40 -7 0 4 -14 42 -31 85 -36 90 -60
101 -85 42z m50 -41 c11 -29 6 -44 -13 -44 -26 0 -31 10 -20 38 10 26 24 29
33 6z"/>
<path d="M3855 1055 c-31 -31 -34 -86 -5 -115 58 -58 160 -23 160 55 0 51 -36
85 -90 85 -30 0 -47 -6 -65 -25z m96 -15 c26 -14 25 -62 -2 -86 -19 -17 -23
-17 -47 -3 -67 37 -19 125 49 89z"/>
<path d="M4080 1065 c0 -9 9 -15 25 -15 24 0 25 -2 25 -70 0 -63 2 -70 20 -70
18 0 20 7 20 70 0 68 1 70 25 70 16 0 25 6 25 15 0 12 -14 15 -70 15 -56 0
-70 -3 -70 -15z"/>
<path d="M4248 995 l3 -85 60 0 c45 0 59 3 59 14 0 10 -14 16 -42 18 -31 2
-44 8 -46 21 -3 14 4 17 37 17 55 0 58 27 4 32 -55 4 -52 32 5 36 28 2 42 8
42 18 0 11 -15 14 -62 14 l-63 0 3 -85z"/>
<path d="M4400 995 c0 -78 2 -85 20 -85 17 0 20 7 20 45 0 53 9 57 34 13 l19
-31 26 32 c14 17 29 31 34 31 4 0 7 -20 7 -45 0 -33 4 -45 15 -45 12 0 15 16
15 85 0 78 -2 85 -20 85 -11 0 -20 -3 -20 -7 0 -5 -13 -23 -28 -41 l-28 -34
-28 41 c-16 23 -37 41 -47 41 -17 0 -19 -9 -19 -85z"/>
<path d="M4710 995 l0 -85 50 0 c43 0 50 3 50 20 0 16 -7 20 -35 20 l-35 0 0
65 c0 51 -3 65 -15 65 -12 0 -15 -16 -15 -85z"/>
<path d="M4840 995 c0 -78 2 -85 20 -85 18 0 20 7 20 85 0 78 -2 85 -20 85
-18 0 -20 -7 -20 -85z"/>
<path d="M4920 995 c0 -78 2 -85 20 -85 17 0 20 7 20 48 l1 47 28 -33 28 -33
26 33 26 33 1 -47 c0 -41 3 -48 20 -48 18 0 20 7 20 85 0 76 -2 85 -19 85 -10
0 -30 -17 -45 -40 -14 -22 -28 -40 -30 -40 -2 0 -16 18 -31 40 -16 22 -36 40
-46 40 -17 0 -19 -9 -19 -85z"/>
<path d="M5150 995 c0 -78 2 -85 20 -85 18 0 20 7 20 85 0 78 -2 85 -20 85
-18 0 -20 -7 -20 -85z"/>
<path d="M5213 1065 c0 -9 10 -15 24 -15 22 0 23 -3 23 -70 0 -63 2 -70 20
-70 18 0 20 7 20 70 0 68 1 70 25 70 16 0 25 6 25 15 0 12 -14 15 -68 15 -54
0 -69 -3 -69 -15z"/>
<path d="M5370 995 l0 -85 65 0 c59 0 65 2 65 21 0 18 -5 20 -42 17 -34 -2
-43 1 -46 15 -3 14 4 17 37 17 55 0 58 27 4 32 -55 4 -52 32 5 36 28 2 42 8
42 18 0 11 -15 14 -65 14 l-65 0 0 -85z"/>
<path d="M5546 1064 c-30 -29 -17 -56 37 -79 20 -8 37 -20 37 -25 0 -18 -32
-24 -53 -11 -29 18 -50 -5 -23 -25 47 -34 125 -1 112 49 -5 20 -16 29 -46 38
-46 14 -56 42 -12 38 35 -4 60 10 41 22 -23 14 -76 10 -93 -7z"/>
</g>
</svg>
